<svg xmlns="http://www.w3.org/2000/svg" version="1.1" xmlns:xlink="http://www.w3.org/1999/xlink" xmlns:svgjs="http://svgjs.dev/svgjs" width="1500" height="935" viewBox="0 0 1500 935"><g transform="matrix(1,0,0,1,-0.9090909090909918,0.3785425101214628)"><svg viewBox="0 0 396 247" data-background-color="#ececea" preserveAspectRatio="xMidYMid meet" height="935" width="1500" xmlns="http://www.w3.org/2000/svg" xmlns:xlink="http://www.w3.org/1999/xlink"><g id="tight-bounds" transform="matrix(1,0,0,1,0.2400000000000091,-0.09999999999999432)"><svg viewBox="0 0 395.52 247.2" height="247.2" width="395.52"><g><svg></svg></g><g><svg viewBox="0 0 395.52 247.2" height="247.2" width="395.52"><g transform="matrix(1,0,0,1,122.20061521162702,47.215199999999996)"><svg viewBox="0 0 151.11876957674593 152.7696" height="152.7696" width="151.11876957674593"><g><svg viewBox="0 0 151.11876957674593 152.7696" height="152.7696" width="151.11876957674593"><g><svg viewBox="0 0 244.43135999999998 247.10154270871004" height="152.7696" width="151.11876957674593"><g transform="matrix(1,0,0,1,0,122.06638680365937)"><svg viewBox="0 0 244.43135999999998 125.03515590505066" height="125.03515590505066" width="244.43135999999998"><g id="textblocktransform"><svg viewBox="0 0 244.43135999999998 125.03515590505066" height="125.03515590505066" width="244.43135999999998" id="textblock"><g><svg viewBox="0 0 244.43135999999998 91.25194587183307" height="91.25194587183307" width="244.43135999999998"><g transform="matrix(1,0,0,1,0,0)"><svg width="244.43135999999998" viewBox="-0.5 -34.85 134.19 50.1" height="91.25194587183307" data-palette-color="#009b7d"><path d="M19.95 1L19.95 1Q19.45 1.35 19.2 1.35L19.2 1.35Q18.65 1.35 18.45 0.9L18.45 0.9Q16.95-2.1 15.95-7.2L15.95-7.2Q15.9-7.4 15.8-7.4L15.8-7.4 15.5-7.2Q14.15-4.8 12.38-2.75 10.6-0.7 9.5 0.15L9.5 0.15 8.4 1Q7.9 1.45 7.6 1.45L7.6 1.45Q7.05 1.45 6.85 0.95L6.85 0.95Q5.75-1.15 4.3-7.2L4.3-7.2 3.85-9.25Q2.9-13.65 1.93-16.3 0.95-18.95 0.45-19.4L0.45-19.4-0.05-19.85Q-0.5-20-0.5-20.35L-0.5-20.35Q-0.5-21.05 1.58-21.85 3.65-22.65 4.8-22.65 5.95-22.65 6.33-21.73 6.7-20.8 7.5-16.55L7.5-16.55Q9.6-5.35 10.55-5.35L10.55-5.35Q10.85-5.35 11.23-5.88 11.6-6.4 12.13-7.15 12.65-7.9 13.55-9.75 14.45-11.6 14.45-13L14.45-13Q14.45-13.25 14.1-14.83 13.75-16.4 13.08-17.88 12.4-19.35 12-19.55L12-19.55Q11.1-20.05 11.1-20.4L11.1-20.4Q11.1-21 13.15-21.83 15.2-22.65 16.85-22.65L16.85-22.65Q17.6-22.65 17.9-21.75L17.9-21.75Q18.65-19.4 19.7-13.3L19.7-13.3Q21.05-5.5 22.2-5.5L22.2-5.5Q22.6-5.5 23.4-6.63 24.2-7.75 24.98-9.9 25.75-12.05 25.75-13.58 25.75-15.1 25.63-15.93 25.5-16.75 24.75-17.85 24-18.95 23.05-19.13 22.1-19.3 22.1-19.75L22.1-19.75Q22.1-20.45 24.18-21.55 26.25-22.65 28.45-22.65L28.45-22.65Q30.55-22.65 30.55-18.45L30.55-18.45Q30.55-13.2 27.45-7.65 24.35-2.1 19.95 1ZM38.05-26.85L38.05-26.85 38-22Q38-21.7 38.2-21.7 38.4-21.7 38.6-21.85L38.6-21.85Q39.85-22.7 42.55-22.7L42.55-22.7Q47.1-22.7 48.85-19.6L48.85-19.6Q49.5-18.45 49.5-16.55 49.5-14.65 49.27-11.3 49.05-7.95 49.05-6.55L49.05-6.55Q49.05-1.65 50.45-0.05L50.45-0.05Q50.7 0.2 50.7 0.45L50.7 0.45Q50.7 0.95 48.55 0.95L48.55 0.95Q42.75 0.95 42.75-4.45L42.75-4.45Q42.75-6.55 43.75-10.35 44.75-14.15 44.75-15.95 44.75-17.75 43.9-18.73 43.05-19.7 41.55-19.7 40.05-19.7 39.17-19.05 38.3-18.4 38.1-17.7L38.1-17.7 37.95-17.05Q37.9-16.1 37.9-11 37.9-5.9 38.15-4.38 38.4-2.85 38.4-2.65L38.4-2.65Q38.4-1.2 36.45-0.08 34.5 1.05 32.6 1.05L32.6 1.05Q31.9 1.05 31.9 0.25L31.9 0.25 32-0.7Q33.1-9.1 33.1-18.9L33.1-18.9Q33.1-22.7 32.8-26.6L32.8-26.6 32.75-27.7Q32.65-29.1 32.17-30.1 31.7-31.1 31.3-31.4L31.3-31.4 30.85-31.65Q30.5-31.85 30.5-32.1L30.5-32.1Q30.5-32.8 32.85-33.83 35.2-34.85 36.47-34.85 37.75-34.85 37.85-34.3L37.85-34.3Q38.05-31.75 38.05-26.85ZM57.35-26.75L57.35-26.75 56.15-26.8Q54.8-26.8 54.4-26.15L54.4-26.15Q54.3-26 54.15-26L54.15-26Q53.5-26 53.5-28.23 53.5-30.45 54.17-31.05 54.85-31.65 56.52-31.65 58.2-31.65 58.8-31.08 59.4-30.5 59.4-29.15 59.4-27.8 58.95-27.28 58.5-26.75 57.35-26.75ZM53.35-1.5L53.35-1.5 53.9-13.15Q53.9-17.3 52.95-18.8L52.95-18.8Q52.65-19.3 52.25-19.55L52.25-19.55Q51.95-19.65 51.95-19.95L51.95-19.95Q51.95-20.85 54.5-21.7 57.05-22.55 58.22-22.55 59.4-22.55 59.45-21.95L59.45-21.95Q59.45-20.95 59.17-16.28 58.9-11.6 58.9-6.45 58.9-1.3 59.5-0.05L59.5-0.05Q59.65 0.2 59.65 0.45L59.65 0.45Q59.65 1.1 57.75 1.1 55.85 1.1 53.85 0.1L53.85 0.1Q53.35-0.15 53.35-1.5ZM77.89-6.85L77.89-6.85Q77.89-4.7 77.07-3.1 76.24-1.5 75.19-0.75 74.14 0 72.69 0.45L72.69 0.45Q70.79 1.05 69.24 1.05L69.24 1.05Q65.99 1.05 63.84-0.23 61.69-1.5 61.69-4.3L61.69-4.3Q61.69-5.95 62.59-7L62.59-7Q63.99-8.55 65.94-8.55L65.94-8.55Q66.54-8.55 66.54-8L66.54-8Q66.54-7.95 66.32-7.23 66.09-6.5 66.09-5.4 66.09-4.3 66.97-3.45 67.84-2.6 69.09-2.6 70.34-2.6 71.09-3.03 71.84-3.45 72.14-4.1L72.14-4.1Q72.59-5 72.59-5.8L72.59-5.8Q72.59-7.25 71.14-8.3 69.69-9.35 67.94-9.95 66.19-10.55 64.74-11.95 63.29-13.35 63.29-15.45L63.29-15.45Q63.29-19.05 65.57-20.85 67.84-22.65 71.74-22.65L71.74-22.65Q73.44-22.65 75.32-22.18 77.19-21.7 77.19-20.58 77.19-19.45 76.82-18.5 76.44-17.55 75.89-17.55L75.89-17.55Q75.59-17.55 75.49-17.78 75.39-18 75.14-18.3 74.89-18.6 73.94-19.07 72.99-19.55 72.32-19.55 71.64-19.55 71.42-19.53 71.19-19.5 70.64-19.38 70.09-19.25 69.64-19L69.64-19Q68.49-18.35 68.49-17.1L68.49-17.1Q68.49-16.3 68.84-15.93 69.19-15.55 69.39-15.35 69.59-15.15 70.09-14.88 70.59-14.6 70.79-14.5 70.99-14.4 71.69-14.08 72.39-13.75 72.59-13.65L72.59-13.65Q77.89-11.15 77.89-6.85ZM80.39-7.65L80.39-7.65Q80.49-12.7 80.49-15.95 80.49-19.2 80.04-22.15L80.04-22.15Q80.04-22.65 81.04-22.65 82.04-22.65 82.77-22.4 83.49-22.15 83.79-21.85L83.79-21.85Q84.59-21.05 84.72-21.05 84.84-21.05 85.49-21.5L85.49-21.5Q87.44-22.75 89.82-22.75 92.19-22.75 93.97-21.55 95.74-20.35 96.49-18.4L96.49-18.4Q97.84-15.05 97.84-11.3L97.84-11.3Q97.84-7.6 96.49-3.9L96.49-3.9Q95.74-1.9 94.29-0.63 92.84 0.65 90.89 0.65L90.89 0.65Q87.04 0.65 87.04-3.8L87.04-3.8Q87.04-5 87.54-5L87.54-5Q87.64-5 88.12-4.78 88.59-4.55 89.04-4.55L89.04-4.55Q92.59-4.55 92.59-12.08 92.59-19.6 88.79-19.6L88.79-19.6Q87.74-19.6 87.02-19.13 86.29-18.65 86.09-18.2L86.09-18.2 85.89-17.7Q85.19-13.2 85.19-0.35L85.19-0.35Q85.19 5.45 85.42 7.98 85.64 10.5 85.64 11 85.64 11.5 85.34 11.9L85.34 11.9Q84.34 13.2 82.64 14.23 80.94 15.25 79.64 15.25L79.64 15.25Q79.14 15.25 79.14 14.6L79.14 14.6Q79.94 9.55 80.39-7.65ZM105.04-12.7L105.04-12.7 105.09-11.45Q105.09-11.15 105.49-11.15L105.49-11.15Q107.09-11.3 108.29-11.98 109.49-12.65 110.09-13.5L110.09-13.5Q111.29-15.35 111.39-16.7L111.39-16.7 111.44-17.3Q111.44-20 109.29-20L109.29-20Q107.69-20 106.69-18.6L106.69-18.6Q105.04-16.4 105.04-12.7ZM115.94-6.05L115.94-6.05Q115.94-4.15 115.16-2.73 114.39-1.3 113.41-0.63 112.44 0.05 111.14 0.45L111.14 0.45Q109.49 0.95 107.99 0.95L107.99 0.95Q103.79 0.95 101.79-2.2 99.79-5.35 99.79-10.23 99.79-15.1 102.26-18.9 104.74-22.7 109.69-22.7L109.69-22.7Q114.19-22.7 115.79-19.55L115.79-19.55Q116.44-18.35 116.44-17.28 116.44-16.2 116.34-15.58 116.24-14.95 115.64-13.7 115.04-12.45 114.04-11.45 113.04-10.45 110.89-9.55 108.74-8.65 105.84-8.35L105.84-8.35Q105.44-8.35 105.44-8L105.44-8Q105.44-7.55 105.76-6.68 106.09-5.8 106.49-5.2L106.49-5.2Q107.59-3.8 109.74-3.8L109.74-3.8Q111.89-3.8 113.39-5.2L113.39-5.2Q114.19-5.95 114.69-7.05L114.69-7.05Q114.89-7.45 115.21-7.45 115.54-7.45 115.74-6.9 115.94-6.35 115.94-6.05ZM133.69-17.2L133.44-13.4 133.64-11.65Q133.64-10.7 131.84-10.7L131.84-10.7Q128.19-10.7 128.19-13.45L128.19-13.45Q128.19-14.1 128.54-15.25 128.89-16.4 128.89-17.25 128.89-18.1 128.39-18.73 127.89-19.35 126.94-19.35 125.99-19.35 125.31-18.68 124.64-18 124.49-17.3L124.49-17.3 124.29-16.6Q123.99-15.05 123.99-11.43 123.99-7.8 124.09-5.73 124.19-3.65 124.29-2.88 124.39-2.1 124.39-1.95L124.39-1.95Q124.39-0.7 122.84 0.08 121.29 0.85 119.74 0.85 118.19 0.85 118.19 0.2L118.19 0.2 118.44-1.35Q119.14-5.7 119.14-12.7 119.14-19.7 118.64-22.2L118.64-22.2Q118.64-22.8 119.69-22.8L119.69-22.8Q122.39-22.8 123.29-20.95L123.29-20.95Q123.34-20.75 123.46-20.75 123.59-20.75 124.14-21.2L124.14-21.2Q125.79-22.55 128.04-22.55L128.04-22.55Q129.44-22.55 130.84-22L130.84-22Q133.69-20.85 133.69-17.2L133.69-17.2Z" opacity="1" transform="matrix(1,0,0,1,0,0)" fill="#009b7d" class="wordmark-text-0" data-fill-palette-color="primary" id="text-0"></path></svg></g></svg></g><g transform="matrix(1,0,0,1,0,104.56779482123444)"><svg viewBox="0 0 244.43135999999998 20.467361083816208" height="20.467361083816208" width="244.43135999999998"><g transform="matrix(1,0,0,1,0,0)"><svg width="244.43135999999998" viewBox="-0.25 -37.8 612.59 51.3" height="20.467361083816208" data-palette-color="#009b7d"><path d="M9.65-17.85L14.15-31.6 15.1-36 17.55-36.4 24.55-17.9 31-2.5 35.2-1.5 34.95 0.5 28.85 0 21.25 0.5 21.35-1.5 25.45-2.5 21.95-12 15.9-12.2 10.15-12 6.9-2.5 10.7-1.5 10.45 0.5 4.35 0-0.25 0.5-0.15-1.5 3.75-2.5 9.65-17.85ZM15.7-29.85L15.6-29.85 11.05-14.75 15.9-14.55 20.95-14.75 17.75-22.75 15.7-29.85ZM60.05-8.3L60.45-2.45 64-1.5 63.75 0.25 57.85 0 51.75 0.25 51.85-1.5 55.15-2.5 55.5-7.75 55.3-18.65 53.95-21.95 49.7-22.7 44.25-19.9 44.15-18.15 43.85-13.15 43.95-8.3 44.2-2.5 47.85-1.5 47.6 0.25 41.7 0 35.6 0.25 35.7-1.5 39-2.5 39.35-7.75 38.9-22.55 35.35-22.4 35.1-24.15 42-25.5 44.5-24.95 44.35-22.4 49.7-25.65 54.8-26 59.4-22.85 60.15-18.85 60.05-8.3ZM67.95-4.55L66.3-9.5 66.3-16.05 69.25-22 74.9-25.75 81.75-26 88-22.25 91.25-16.25 90.65-7.1 86.95-1.2 79.2 1 72.7-0.25 67.95-4.55ZM74.95-23.2L71.8-17.75 71.55-12.15 72.15-6.35 74.3-2.6 79.6-1.3 84.5-3.45 85.95-11.25 85.45-17.75 83.6-21.9 79.95-23.75 74.95-23.2ZM118.99-8.3L119.39-2.45 122.94-1.5 122.69 0.25 116.79 0 110.69 0.25 110.79-1.5 114.09-2.5 114.44-7.75 114.24-18.65 112.89-21.95 108.64-22.7 103.19-19.9 103.09-18.15 102.79-13.15 102.89-8.3 103.14-2.5 106.79-1.5 106.54 0.25 100.64 0 94.54 0.25 94.64-1.5 97.94-2.5 98.29-7.75 97.84-22.55 94.29-22.4 94.04-24.15 100.94-25.5 103.44-24.95 103.29-22.4 108.64-25.65 113.74-26 118.34-22.85 119.09-18.85 118.99-8.3ZM131.49 13L128.99 13.5 127.44 11.25 125.94 7.15 127.84 6.45 130.64 10.6 133.19 8.15 136.69 0.15 128.94-19.7 127.19-22.75 123.64-23.5 123.89-25.25 129.99-25 135.94-25.25 135.84-23.5 132.94-22.65 133.69-19.55 136.39-12.65 139.14-4.6 139.29-4.6 141.79-12.45 144.34-19.6 144.84-22.8 142.04-23.5 142.29-25.25 147.64-25 151.89-25.25 151.79-23.5 148.74-22.6 146.99-18.85 139.54 1.05 135.24 9.3 131.49 13ZM177.29-8.3L177.69-2.45 181.24-1.5 180.99 0.25 175.09 0 168.99 0.25 169.09-1.5 172.39-2.5 172.74-7.75 172.54-18.65 171.19-21.95 166.94-22.7 161.99-20.05 161.89-18.15 161.59-13.15 161.69-8.3 161.94-2.5 165.59-1.5 165.34 0.25 159.44 0 153.34 0.25 153.44-1.5 156.74-2.5 157.09-7.75 156.89-17.35 156.64-22.55 153.09-22.4 152.84-24.15 159.74-25.5 162.24-24.95 162.09-22.6 166.94-25.65 172.04-26 176.64-22.85 176.89-21.5 181.89-25.65 186.99-26 191.59-22.85 192.34-18.85 192.24-8.3 192.64-2.45 196.19-1.5 195.94 0.25 190.04 0 183.94 0.25 184.04-1.5 187.34-2.5 187.69-7.75 187.49-18.65 186.14-21.95 181.89-22.7 177.29-19.35 177.39-18.85 177.29-8.3ZM200.09-4.55L198.44-9.5 198.44-16.05 201.39-22 207.04-25.75 213.89-26 220.14-22.25 223.39-16.25 222.79-7.1 219.09-1.2 211.34 1 204.84-0.25 200.09-4.55ZM207.09-23.2L203.94-17.75 203.69-12.15 204.29-6.35 206.44-2.6 211.74-1.3 216.64-3.45 218.09-11.25 217.59-17.75 215.74-21.9 212.09-23.75 207.09-23.2ZM234.73-24.95L234.43-17.25 234.43-6.35 235.78-3.05 239.98-2.5 245.43-5.75 245.43-11.05 245.38-17.3 245.13-22.5 241.58-22.35 241.33-24.1 248.23-25.45 250.73-24.9 250.38-18.1 250.33-14.1 250.43-11.05 250.43-2.05 253.93-1.05 253.68 0.7 246.83 0.7 245.68-3.5 240.03 0.65 234.93 1 230.33-2.15 229.58-6.15 229.63-16.85 229.13-22.55 225.58-22.4 225.33-24.15 232.23-25.5 234.73-24.95ZM259.73-7.5L260.13-1.95 264.28-1.3 268.93-1.95 270.03-5.35 268.68-7.95 259.38-13.6 257.38-16.75 257.28-22.05 260.83-25.05 266.08-26 273.43-24.5 272.38-17.15 270.28-17.85 269.33-23.05 265.88-23.7 262.13-22.85 261.18-20.1 262.38-17.15 271.98-11.65 274.33-8.7 274.53-4 271.13 0 265.13 1 260.98 0.8 256.33-1 257.58-8.2 259.73-7.5ZM283.38 0L277.28 0.25 277.38-1.5 280.68-2.5 280.93-7.75 281.13-18.7 280.83-29.85 280.58-34.85 277.03-34.7 276.78-36.45 283.68-37.8 286.18-37.25 285.83-30.65 285.53-13.15 285.68-8.3 286.08-2.5 289.73-1.5 289.48 0.25 283.38 0ZM298.53 13L296.03 13.5 294.48 11.25 292.98 7.15 294.88 6.45 297.68 10.6 300.23 8.15 303.73 0.15 295.98-19.7 294.23-22.75 290.68-23.5 290.93-25.25 297.03-25 302.98-25.25 302.88-23.5 299.98-22.65 300.73-19.55 303.43-12.65 306.18-4.6 306.33-4.6 308.83-12.45 311.38-19.6 311.88-22.8 309.08-23.5 309.33-25.25 314.68-25 318.93-25.25 318.83-23.5 315.78-22.6 314.03-18.85 306.58 1.05 302.28 9.3 298.53 13ZM335.77-7.5L336.17-1.95 340.32-1.3 344.97-1.95 346.07-5.35 344.72-7.95 335.42-13.6 333.42-16.75 333.32-22.05 336.87-25.05 342.12-26 349.47-24.5 348.42-17.15 346.32-17.85 345.37-23.05 341.92-23.7 338.17-22.85 337.22-20.1 338.42-17.15 348.02-11.65 350.37-8.7 350.57-4 347.17 0 341.17 1 337.02 0.8 332.37-1 333.62-8.2 335.77-7.5ZM362.07-37.25L361.82-30.45 361.67-22.25 367.22-25.65 372.32-26 376.92-22.85 377.67-18.85 377.57-8.3 377.97-2.45 381.52-1.5 381.27 0.25 375.37 0 369.27 0.25 369.37-1.5 372.67-2.5 373.02-7.75 372.82-18.65 371.47-21.95 367.22-22.7 361.62-19.85 361.52-13.15 361.62-8.3 361.77-2.5 365.42-1.5 365.17 0.25 359.27 0 353.17 0.25 353.27-1.5 356.57-2.5 357.02-7.75 356.82-29.65 356.47-34.85 352.92-34.7 352.67-36.45 359.57-37.8 362.07-37.25ZM402.72-19.8L402.77-9.1 403.12-2.05 406.57-1.55 406.22 0.1 399.27 0.7 398.62-2.25 398.37-2.25 393.42 0.7 388.22 0.7 384.72-1.85 383.67-6.75 385.87-10.65 391.87-13.25 398.47-13.5 398.27-19.75 397.32-22.85 393.27-24 388.42-22.85 388.27-17.55 386.32-17.15 385.02-24 390.77-25.7 397.22-26 401.12-24.1 402.72-19.8ZM388.52-6.85L389.87-2.8 393.62-1.85 398.67-4.75 398.47-11.5 394.12-11.5 390.27-9.95 388.52-6.85ZM417.41-24.95L417.21-20.9 417.41-20.9 420.51-24.45 423.91-25.95 427.66-25 426.81-17.55 425.06-17.9 423.81-23.05 420.56-22 417.01-17.85 416.76-13.15 416.91-8.3 417.11-2.5 422.11-1.5 421.86 0.25 414.61 0 408.51 0.25 408.61-1.5 411.91-2.5 412.16-7.75 412.06-17.35 411.81-22.55 408.26-22.4 408.01-24.15 414.91-25.5 417.41-24.95ZM444.26-12.9L435.61-13.45 435.56-13 436.91-5.95 440.86-2.05 445.46-1.55 450.16-4.05 451.06-2.75 447.11 0.4 442.41 1 437.51-0.15 433.26-3.7 430.71-11.2 431.56-17.9 434.16-22.6 439.41-25.5 443.81-26.05 447.31-24.95 450.01-22.5 451.56-18.05 451.61-13.9 450.91-13.35 444.26-12.9ZM441.91-23.8L438.11-21.55 436.16-17.75 435.86-15.5 443.46-15.4 446.91-16.15 446.61-20.8 445.11-23.35 441.91-23.8ZM470.21-7.5L470.61-1.95 474.76-1.3 479.41-1.95 480.51-5.35 479.16-7.95 469.86-13.6 467.86-16.75 467.76-22.05 471.31-25.05 476.56-26 483.91-24.5 482.86-17.15 480.76-17.85 479.81-23.05 476.36-23.7 472.61-22.85 471.66-20.1 472.86-17.15 482.46-11.65 484.81-8.7 485.01-4 481.61 0 475.61 1 471.46 0.8 466.81-1 468.06-8.2 470.21-7.5ZM502.7-1.2L499.9 0.5 496.5 1 492.95-0.2 491.35-4.2 491.6-13.5 491.35-21.9 487.9-22.4 487.6-24.15 491.55-25.2 493.35-30.25 495.9-30.25 495.75-24.65 501.8-24.45 501.5-22.25 496.25-21.9 496.05-19.6 496.25-4.45 497.25-1.45 501.95-2.7 502.7-1.2ZM506.6-4.55L504.95-9.5 504.95-16.05 507.9-22 513.55-25.75 520.4-26 526.65-22.25 529.9-16.25 529.3-7.1 525.6-1.2 517.85 1 511.35-0.25 506.6-4.55ZM513.6-23.2L510.45-17.75 510.2-12.15 510.8-6.35 512.95-2.6 518.25-1.3 523.15-3.45 524.6-11.25 524.1-17.75 522.25-21.9 518.6-23.75 513.6-23.2ZM542.1-24.95L541.9-20.9 542.1-20.9 545.2-24.45 548.6-25.95 552.35-25 551.5-17.55 549.75-17.9 548.5-23.05 545.25-22 541.7-17.85 541.45-13.15 541.6-8.3 541.8-2.5 546.8-1.5 546.55 0.25 539.3 0 533.2 0.25 533.3-1.5 536.6-2.5 536.85-7.75 536.75-17.35 536.5-22.55 532.95-22.4 532.7-24.15 539.6-25.5 542.1-24.95ZM563.64-24.95L563.29-18.15 562.99-13.15 563.14-8.3 563.34-2.5 566.99-1.5 566.74 0.25 560.84 0 554.74 0.25 554.84-1.5 558.14-2.5 558.39-7.75 558.29-17.35 558.04-22.55 554.49-22.4 554.24-24.15 561.14-25.5 563.64-24.95ZM556.59-34.4L557.74-36.25 559.99-37.3 562.29-36.55 563.34-33.95 561.99-31.85 559.74-30.95 557.64-32.25 556.59-34.4ZM583.44-12.9L574.79-13.45 574.74-13 576.09-5.95 580.04-2.05 584.64-1.55 589.34-4.05 590.24-2.75 586.29 0.4 581.59 1 576.69-0.15 572.44-3.7 569.89-11.2 570.74-17.9 573.34-22.6 578.59-25.5 582.99-26.05 586.49-24.95 589.19-22.5 590.74-18.05 590.79-13.9 590.09-13.35 583.44-12.9ZM581.09-23.8L577.29-21.55 575.34-17.75 575.04-15.5 582.64-15.4 586.09-16.15 585.79-20.8 584.29-23.35 581.09-23.8ZM597.54-7.5L597.94-1.95 602.09-1.3 606.74-1.95 607.84-5.35 606.49-7.95 597.19-13.6 595.19-16.75 595.09-22.05 598.64-25.05 603.89-26 611.24-24.5 610.19-17.15 608.09-17.85 607.14-23.05 603.69-23.7 599.94-22.85 598.99-20.1 600.19-17.15 609.79-11.65 612.14-8.7 612.34-4 608.94 0 602.94 1 598.79 0.8 594.14-1 595.39-8.2 597.54-7.5Z" opacity="1" transform="matrix(1,0,0,1,0,0)" fill="#009b7d" class="slogan-text-1" data-fill-palette-color="secondary" id="text-1"></path></svg></g></svg></g></svg></g></svg></g><g transform="matrix(1,0,0,1,46.68638976,0)"><svg viewBox="0 0 151.05858048 108.750537854258" height="108.750537854258" width="151.05858048"><g><svg xmlns="http://www.w3.org/2000/svg" xmlns:xlink="http://www.w3.org/1999/xlink" version="1.1" x="0" y="0" viewBox="0.08399650860341228 3.4199999999999995 23.833106254144 17.158" enable-background="new 0 0 24 24" xml:space="preserve" height="108.750537854258" width="151.05858048" class="icon-icon-0" data-fill-palette-color="accent" id="icon-0"><g fill="#ffbf5d" data-fill-palette-color="accent"><path d="M0.486 10.266c0.061 0.011 0.115 0.021 0.173 0.027 0.646 0.063 3.467 0.317 6.312 0.575l3.437 0.311c-0.102 0.28-0.205 0.561-0.272 0.859-0.108 0.484-0.166 0.984-0.172 1.488-0.02 1.883 0.689 3.652 1.996 4.981 1.303 1.324 3.052 2.06 4.925 2.071 0.001 0 0.044 0 0.045 0 3.897 0 6.966-3.051 6.987-6.945 0.006-1.096-0.251-2.132-0.703-3.06 0.022-0.035 0.055-0.06 0.066-0.102l0.288-1.176c0.038-0.151 0.075-0.3 0.107-0.449 0.15-0.705-0.047-1.313-0.569-1.761C21.929 6.08 20.747 5.08 19.56 4.084c-0.516-0.433-1.111-0.656-1.771-0.664-0.011 0-0.022 0-0.034 0-1.464 0-2.726 0.987-3.076 2.412l-0.195 0.796H0.484c-0.221 0-0.4 0.179-0.4 0.4v2.831C0.083 10.051 0.297 10.23 0.486 10.266zM7.042 10.072c-0.321-0.029-0.642-0.058-0.96-0.087V7.428h7.614c-1.265 0.656-2.29 1.693-2.947 2.98L7.042 10.072zM16.929 19.78l-0.04-0.001c-1.658-0.01-3.207-0.66-4.359-1.832-1.156-1.176-1.784-2.742-1.766-4.412 0.004-0.447 0.056-0.892 0.152-1.32 0.633-2.818 3.115-4.787 6.109-4.787 3.376 0.038 6.107 2.82 6.09 6.203C23.098 17.079 20.38 19.78 16.929 19.78zM15.456 6.023c0.262-1.064 1.205-1.802 2.299-1.802 0.009 0 0.018 0 0.025 0 0.47 0.005 0.896 0.166 1.266 0.476 1.185 0.995 2.365 1.993 3.54 2.998 0.298 0.255 0.396 0.569 0.306 0.987-0.029 0.141-0.064 0.28-0.1 0.42l-0.13 0.53c-1.252-1.79-3.326-2.979-5.707-3.005-0.098 0-0.19 0.02-0.287 0.024-0.038-0.012-0.076-0.024-0.117-0.024h-1.243L15.456 6.023zM0.884 7.428h4.397v2.485C3.289 9.732 1.545 9.573 0.884 9.511V7.428z" fill="#ffbf5d" data-fill-palette-color="accent"></path><path d="M16.944 11.394c-1.229 0-2.2 0.96-2.214 2.186-0.006 0.596 0.219 1.155 0.633 1.577 0.413 0.419 0.967 0.652 1.56 0.656 0.001 0 0.015 0 0.016 0 1.233 0 2.204-0.966 2.211-2.199C19.156 12.403 18.178 11.408 16.944 11.394zM16.938 15.012v0.4l-0.011-0.4c-0.379-0.002-0.731-0.15-0.994-0.417-0.264-0.268-0.407-0.626-0.402-1.008 0.008-0.781 0.629-1.393 1.429-1.393h0.001c0.783 0.008 1.393 0.63 1.388 1.415C18.345 14.396 17.725 15.012 16.938 15.012z" fill="#ffbf5d" data-fill-palette-color="accent"></path><path d="M16.949 8.872c-2.631 0-4.713 2.056-4.741 4.681-0.013 1.277 0.468 2.477 1.354 3.379 0.884 0.898 2.07 1.397 3.341 1.405 0 0 0.028 0 0.029 0 2.645 0 4.726-2.07 4.74-4.712C21.685 11.032 19.59 8.9 16.949 8.872zM16.932 17.536h-0.025c-1.056-0.006-2.041-0.42-2.774-1.166-0.736-0.749-1.136-1.746-1.124-2.81 0.022-2.18 1.753-3.888 3.986-3.888 0 0 0 0 0.001 0 2.147 0.022 3.887 1.794 3.876 3.948C20.861 15.816 19.13 17.536 16.932 17.536z" fill="#ffbf5d" data-fill-palette-color="accent"></path></g></svg></g></svg></g><g></g></svg></g></svg></g></svg></g><g><path d="M159.67 38.983A75.559 75.559 0 0 1 235.85 38.983L232.705 38.983A72.415 72.415 0 0 0 162.815 38.983L159.67 38.983M159.67 208.217A75.559 75.559 0 0 0 235.85 208.217L232.705 208.217A72.415 72.415 0 0 1 162.815 208.217L159.67 208.217" fill="#009b7d" stroke="transparent" data-fill-palette-color="tertiary"></path></g></svg></g><defs></defs></svg><rect width="395.52" height="247.2" fill="none" stroke="none" visibility="hidden"></rect></g></svg></g></svg>